# Blender v2.72 (sub 0) OBJ File: ''
# www.blender.org
mtllib stupidShip2.mtl
o Deck_Plane.002
v -0.140000 0.198773 0.090000
v 0.140000 0.198773 0.090000
v 0.140000 0.198773 -1.810000
v -0.140000 0.198773 -1.810000
vn 0.000000 1.000000 0.000000
usemtl None
s off
f 2//1 3//1 4//1
f 1//1 2//1 4//1
o Plane.001
v -0.160505 0.234923 0.060000
v 0.010505 -0.234923 0.060000
v 0.010505 -0.234923 -1.940000
v -0.160505 0.234923 -1.940000
vn 0.939700 0.342000 0.000000
usemtl None
s off
f 6//2 7//2 8//2
f 5//2 6//2 8//2
o Heck_Cone.001
v -0.057402 0.029946 -1.295780
v 0.000000 -0.187939 -1.866670
v -0.029263 0.020214 -1.269043
v 0.000000 0.016928 -1.260015
v 0.029264 0.020214 -1.269043
v -0.083335 0.045749 -1.339198
v -0.106066 0.067016 -1.397630
v -0.124720 0.092930 -1.468829
v -0.138582 0.122496 -1.550059
v -0.147118 0.154576 -1.638199
v -0.150000 0.187938 -1.729861
v -0.147118 0.221301 -1.821524
v -0.138582 0.253381 -1.909664
v -0.124721 0.282947 -1.990894
v -0.106066 0.308861 -2.062093
v -0.083336 0.330128 -2.120524
v -0.057403 0.345931 -2.163943
v -0.029264 0.355663 -2.190680
v 0.000000 0.358949 -2.199708
v 0.029264 0.355663 -2.190680
v 0.057402 0.345931 -2.163943
v 0.083336 0.330128 -2.120525
v 0.106066 0.308861 -2.062093
v 0.124720 0.282947 -1.990894
v 0.138582 0.253381 -1.909664
v 0.147118 0.221301 -1.821524
v 0.150000 0.187939 -1.729862
v 0.147118 0.154576 -1.638199
v 0.138582 0.122496 -1.550059
v 0.124720 0.092930 -1.468829
v 0.106066 0.067016 -1.397630
v 0.083336 0.045749 -1.339199
v 0.057403 0.029946 -1.295780
vn -0.524800 -0.811500 0.257000
vn 0.200900 -0.928100 0.313400
vn -0.717600 -0.671600 0.184200
vn -0.822100 -0.557200 0.117000
vn -0.879200 -0.472900 0.058200
vn -0.911100 -0.412200 0.005400
vn -0.928300 -0.369100 -0.044400
vn -0.936000 -0.339300 -0.094100
vn -0.936000 -0.320400 -0.146000
vn -0.928300 -0.311300 -0.203200
vn -0.911100 -0.312300 -0.269100
vn -0.879200 -0.324800 -0.348600
vn -0.822100 -0.351700 -0.447800
vn -0.717600 -0.396100 -0.572800
vn -0.524800 -0.456500 -0.718500
vn -0.200900 -0.509500 -0.836700
vn 0.200900 -0.509500 -0.836700
vn 0.524800 -0.456500 -0.718500
vn 0.717600 -0.396100 -0.572800
vn 0.822100 -0.351700 -0.447800
vn 0.879200 -0.324800 -0.348600
vn 0.911100 -0.312300 -0.269100
vn 0.928300 -0.311300 -0.203200
vn 0.936000 -0.320400 -0.146000
vn 0.936000 -0.339300 -0.094100
vn 0.928300 -0.369100 -0.044400
vn 0.911100 -0.412200 0.005400
vn 0.879200 -0.472900 0.058200
vn 0.822100 -0.557200 0.117000
vn 0.717600 -0.671600 0.184200
vn -0.200900 -0.928100 0.313400
vn 0.524800 -0.811500 0.257000
vn 0.000000 0.939700 0.342000
usemtl None
s off
f 9//3 10//3 11//3
f 12//4 10//4 13//4
f 10//5 9//5 14//5
f 15//6 10//6 14//6
f 16//7 10//7 15//7
f 17//8 10//8 16//8
f 18//9 10//9 17//9
f 19//10 10//10 18//10
f 20//11 10//11 19//11
f 21//12 10//12 20//12
f 22//13 10//13 21//13
f 23//14 10//14 22//14
f 24//15 10//15 23//15
f 25//16 10//16 24//16
f 26//17 10//17 25//17
f 27//18 10//18 26//18
f 28//19 10//19 27//19
f 29//20 10//20 28//20
f 30//21 10//21 29//21
f 31//22 10//22 30//22
f 32//23 10//23 31//23
f 33//24 10//24 32//24
f 34//25 10//25 33//25
f 35//26 10//26 34//26
f 36//27 10//27 35//27
f 37//28 10//28 36//28
f 38//29 10//29 37//29
f 39//30 10//30 38//30
f 40//31 10//31 39//31
f 41//32 10//32 40//32
f 11//33 10//33 12//33
f 13//34 10//34 41//34
f 34//35 20//35 35//35
f 21//35 20//35 33//35
f 38//35 16//35 39//35
f 29//35 28//35 26//35
f 11//35 12//35 13//35
f 11//35 41//35 9//35
f 40//35 39//35 14//35
f 16//35 37//35 17//35
f 18//35 36//35 19//35
f 31//35 24//35 23//35
f 22//35 32//35 23//35
f 41//35 40//35 9//35
f 28//35 27//35 26//35
f 39//35 15//35 14//35
f 30//35 24//35 31//35
f 32//35 21//35 33//35
f 32//35 31//35 23//35
f 25//35 29//35 26//35
f 11//35 13//35 41//35
f 32//35 22//35 21//35
f 16//35 38//35 37//35
f 25//35 24//35 29//35
f 40//35 14//35 9//35
f 36//35 18//35 17//35
f 16//35 15//35 39//35
f 35//35 20//35 19//35
f 24//35 30//35 29//35
f 37//35 36//35 17//35
f 20//35 34//35 33//35
f 36//35 35//35 19//35
o Plane.000_Plane.003
v -0.010505 -0.234923 0.060000
v 0.160505 0.234923 0.060000
v 0.160505 0.234923 -1.940000
v -0.010505 -0.234923 -1.940000
vn -0.939700 0.342000 0.000000
usemtl None
s off
f 43//36 44//36 45//36
f 42//36 43//36 45//36
o Cube.001_Cube.002
v -0.100000 0.390000 -0.599999
v -0.100000 0.390000 -1.759999
v -0.100000 0.190000 -1.759999
v -0.100000 0.190000 -0.599999
v 0.100000 0.390000 -1.759999
v 0.100000 0.190000 -1.759999
v 0.100000 0.390000 -0.599999
v 0.100000 0.190000 -0.599999
vn -1.000000 0.000000 0.000000
vn 0.000000 0.000000 -1.000000
vn 1.000000 0.000000 0.000000
vn 0.000000 0.000000 1.000000
vn 0.000000 -1.000000 -0.000000
vn 0.000000 1.000000 0.000000
usemtl None
s off
f 47//37 48//37 49//37
f 50//38 51//38 48//38
f 52//39 53//39 51//39
f 46//40 49//40 53//40
f 48//41 51//41 53//41
f 46//42 52//42 50//42
f 46//37 47//37 49//37
f 47//38 50//38 48//38
f 50//39 52//39 51//39
f 52//40 46//40 53//40
f 49//41 48//41 53//41
f 47//42 46//42 50//42
o Cylinder
v 0.000000 0.265981 0.029833
v 0.000000 0.525981 0.480167
v 0.005853 0.525482 0.480455
v 0.005853 0.265482 0.030122
v 0.011481 0.524003 0.481308
v 0.011481 0.264003 0.030975
v 0.016667 0.521602 0.482695
v 0.016667 0.261602 0.032361
v 0.021213 0.518371 0.484560
v 0.021213 0.258371 0.034227
v 0.024944 0.514434 0.486833
v 0.024944 0.254434 0.036500
v 0.027716 0.509942 0.489426
v 0.027716 0.249942 0.039093
v 0.029424 0.505069 0.492240
v 0.029424 0.245069 0.041907
v 0.030000 0.500000 0.495167
v 0.030000 0.240000 0.044833
v 0.029424 0.494931 0.498093
v 0.029424 0.234931 0.047760
v 0.027716 0.490058 0.500907
v 0.027716 0.230058 0.050574
v 0.024944 0.485566 0.503500
v 0.024944 0.225566 0.053167
v 0.021213 0.481629 0.505773
v 0.021213 0.221629 0.055440
v 0.016667 0.478398 0.507639
v 0.016667 0.218398 0.057305
v 0.011481 0.475997 0.509025
v 0.011481 0.215997 0.058692
v 0.005853 0.474518 0.509878
v 0.005853 0.214518 0.059545
v 0.000000 0.474019 0.510167
v 0.000000 0.214019 0.059833
v -0.005853 0.474518 0.509878
v -0.005853 0.214518 0.059545
v -0.011481 0.475997 0.509025
v -0.011481 0.215997 0.058692
v -0.016667 0.478398 0.507639
v -0.016667 0.218398 0.057305
v -0.021213 0.481629 0.505773
v -0.021213 0.221629 0.055440
v -0.024944 0.485566 0.503500
v -0.024944 0.225566 0.053167
v -0.027716 0.490058 0.500907
v -0.027716 0.230058 0.050574
v -0.029424 0.494931 0.498093
v -0.029424 0.234931 0.047760
v -0.030000 0.500000 0.495167
v -0.030000 0.240000 0.044833
v -0.029424 0.505069 0.492240
v -0.029424 0.245069 0.041907
v -0.027716 0.509942 0.489426
v -0.027716 0.249942 0.039093
v -0.024944 0.514434 0.486833
v -0.024944 0.254434 0.036500
v -0.021213 0.518371 0.484560
v -0.021213 0.258371 0.034227
v -0.016667 0.521602 0.482695
v -0.016667 0.261602 0.032361
v -0.011480 0.524003 0.481308
v -0.011480 0.264003 0.030975
v -0.005853 0.525482 0.480455
v -0.005853 0.265482 0.030122
vn 0.098000 0.861900 -0.497600
vn 0.290300 0.828700 -0.478500
vn 0.471500 0.763700 -0.440900
vn 0.634400 0.669500 -0.386500
vn 0.773000 0.549400 -0.317200
vn 0.881900 0.408200 -0.235700
vn 0.956900 0.251500 -0.145200
vn 0.995200 0.084800 -0.049000
vn 0.995200 -0.084800 0.049000
vn 0.956900 -0.251500 0.145200
vn 0.881900 -0.408200 0.235700
vn 0.773000 -0.549400 0.317200
vn 0.634400 -0.669400 0.386500
vn 0.471400 -0.763700 0.440900
vn 0.290300 -0.828700 0.478500
vn 0.098000 -0.861900 0.497600
vn -0.098000 -0.861900 0.497600
vn -0.290300 -0.828700 0.478500
vn -0.471400 -0.763700 0.440900
vn -0.634400 -0.669400 0.386500
vn -0.773000 -0.549400 0.317200
vn -0.881900 -0.408200 0.235700
vn -0.956900 -0.251500 0.145200
vn -0.995200 -0.084800 0.049000
vn -0.995200 0.084800 -0.049000
vn -0.956900 0.251500 -0.145200
vn -0.881900 0.408200 -0.235700
vn -0.773000 0.549400 -0.317200
vn -0.634400 0.669500 -0.386500
vn -0.471400 0.763700 -0.440900
vn -0.098000 0.861900 -0.497600
vn -0.290300 0.828700 -0.478500
vn -0.000200 -0.499800 -0.866100
vn -0.000300 0.499800 0.866100
vn 0.471400 0.763700 -0.440900
vn 0.634400 0.669400 -0.386500
vn 0.634400 -0.669500 0.386500
vn 0.471500 -0.763700 0.440900
vn -0.471500 -0.763700 0.440900
vn -0.634400 -0.669500 0.386500
vn -0.634400 0.669400 -0.386500
vn -0.471400 0.763800 -0.441000
vn -0.290400 0.828700 -0.478500
vn -0.000500 -0.501000 -0.865500
vn -0.000000 -0.500000 -0.866000
vn 0.000500 -0.501000 -0.865500
vn 0.000100 -0.500000 -0.866000
vn -0.000100 -0.500000 -0.866000
vn 0.000800 -0.499800 -0.866100
vn 0.000300 0.499800 0.866100
vn -0.000300 -0.500400 -0.865800
vn 0.000100 -0.500400 -0.865800
vn 0.000000 -0.500000 -0.866100
vn 0.000300 -0.500500 -0.865800
vn 0.000000 0.500000 0.866000
vn -0.000800 -0.499800 -0.866100
vn 0.000200 -0.499800 -0.866100
vn -0.000300 -0.498800 -0.866700
vn 0.000000 -0.499800 -0.866200
vn -0.000200 -0.500000 -0.866000
vn -0.000000 -0.500100 -0.865900
vn 0.000200 -0.500000 -0.866000
vn -0.000200 0.500500 0.865700
vn 0.000500 0.500900 0.865500
vn 0.000100 0.500000 0.866000
vn -0.000300 0.500000 0.866000
vn -0.000100 0.500000 0.866000
vn 0.000000 0.499500 0.866300
vn -0.000300 0.500400 0.865800
vn 0.000000 0.501200 0.865300
vn 0.000300 0.500400 0.865800
vn 0.000000 0.500100 0.866000
vn -0.000800 0.499900 0.866100
vn 0.000300 0.500000 0.866000
vn 0.000200 0.500000 0.866000
vn 0.000800 0.499900 0.866100
vn 0.000000 0.499800 0.866100
vn -0.000200 0.500000 0.866000
usemtl None
s off
f 54//43 55//43 56//43
f 56//44 58//44 59//44
f 59//45 58//45 60//45
f 61//46 60//46 62//46
f 63//47 62//47 64//47
f 64//48 66//48 67//48
f 67//49 66//49 68//49
f 68//50 70//50 71//50
f 70//51 72//51 73//51
f 73//52 72//52 74//52
f 74//53 76//53 77//53
f 77//54 76//54 78//54
f 78//55 80//55 81//55
f 81//56 80//56 82//56
f 82//57 84//57 85//57
f 85//58 84//58 86//58
f 86//59 88//59 89//59
f 89//60 88//60 90//60
f 90//61 92//61 93//61
f 93//62 92//62 94//62
f 95//63 94//63 96//63
f 97//64 96//64 98//64
f 98//65 100//65 101//65
f 101//66 100//66 102//66
f 102//67 104//67 105//67
f 104//68 106//68 107//68
f 106//69 108//69 109//69
f 109//70 108//70 110//70
f 110//71 112//71 113//71
f 112//72 114//72 115//72
f 54//73 117//73 116//73
f 115//74 114//74 116//74
f 109//75 111//75 107//75
f 98//76 96//76 94//76
f 57//43 54//43 56//43
f 57//44 56//44 59//44
f 61//77 59//77 60//77
f 63//78 61//78 62//78
f 65//47 63//47 64//47
f 65//48 64//48 67//48
f 69//49 67//49 68//49
f 69//50 68//50 71//50
f 71//51 70//51 73//51
f 75//52 73//52 74//52
f 75//53 74//53 77//53
f 79//54 77//54 78//54
f 79//79 78//79 81//79
f 83//80 81//80 82//80
f 83//57 82//57 85//57
f 87//58 85//58 86//58
f 87//59 86//59 89//59
f 91//60 89//60 90//60
f 91//81 90//81 93//81
f 95//82 93//82 94//82
f 97//63 95//63 96//63
f 99//64 97//64 98//64
f 99//65 98//65 101//65
f 103//66 101//66 102//66
f 103//67 102//67 105//67
f 105//68 104//68 107//68
f 107//69 106//69 109//69
f 111//70 109//70 110//70
f 111//83 110//83 113//83
f 113//84 112//84 115//84
f 55//73 54//73 116//73
f 117//85 115//85 116//85
f 89//86 91//86 93//86
f 89//87 93//87 87//87
f 81//88 83//88 85//88
f 81//89 75//89 79//89
f 99//90 93//90 95//90
f 73//90 75//90 71//90
f 67//91 69//91 71//91
f 108//92 106//92 110//92
f 57//93 59//93 61//93
f 57//94 115//94 54//94
f 81//95 93//95 75//95
f 113//96 115//96 111//96
f 98//97 94//97 78//97
f 105//98 107//98 103//98
f 63//99 65//99 67//99
f 97//99 99//99 95//99
f 87//87 93//87 81//87
f 85//87 87//87 81//87
f 115//100 117//100 54//100
f 63//87 67//87 107//87
f 61//101 115//101 57//101
f 75//75 77//75 79//75
f 93//87 67//87 75//87
f 99//89 101//89 103//89
f 75//102 67//102 71//102
f 61//103 63//103 115//103
f 111//87 63//87 107//87
f 99//90 107//90 93//90
f 67//87 93//87 107//87
f 63//87 111//87 115//87
f 107//104 99//104 103//104
f 112//105 55//105 114//105
f 66//76 64//76 62//76
f 60//106 58//106 56//106
f 60//107 66//107 62//107
f 74//107 66//107 60//107
f 68//108 66//108 70//108
f 106//109 112//109 110//109
f 55//110 116//110 114//110
f 84//111 82//111 80//111
f 88//112 86//112 84//112
f 92//113 90//113 88//113
f 92//114 80//114 94//114
f 100//115 98//115 102//115
f 106//116 104//116 102//116
f 55//97 112//97 60//97
f 56//114 55//114 60//114
f 98//117 106//117 102//117
f 74//118 72//118 70//118
f 88//119 84//119 80//119
f 88//119 80//119 92//119
f 78//97 74//97 98//97
f 106//109 98//109 112//109
f 74//97 112//97 98//97
f 94//114 80//114 78//114
f 66//120 74//120 70//120
f 78//92 76//92 74//92
f 112//97 74//97 60//97
o Bug_Cone
v -0.057402 0.239500 0.442751
v 0.000000 -0.199239 0.017431
v -0.029263 0.241979 0.471096
v 0.000000 0.242817 0.480666
v 0.029264 0.241979 0.471095
v -0.083335 0.235473 0.396722
v -0.106066 0.230053 0.334777
v -0.124720 0.223450 0.259297
v -0.138582 0.215916 0.173183
v -0.147118 0.207741 0.079743
v -0.150000 0.199239 -0.017431
v -0.147118 0.190737 -0.114605
v -0.138582 0.182562 -0.208044
v -0.124721 0.175028 -0.294159
v -0.106066 0.168425 -0.369639
v -0.083336 0.163005 -0.431584
v -0.057403 0.158978 -0.477613
v -0.029264 0.156498 -0.505958
v 0.000000 0.155661 -0.515529
v 0.029264 0.156498 -0.505958
v 0.057402 0.158978 -0.477613
v 0.083336 0.163005 -0.431584
v 0.106066 0.168425 -0.369639
v 0.124720 0.175028 -0.294159
v 0.138582 0.182562 -0.208045
v 0.147118 0.190737 -0.114605
v 0.150000 0.199239 -0.017431
v 0.147118 0.207741 0.079743
v 0.138582 0.215915 0.173182
v 0.124720 0.223449 0.259297
v 0.106066 0.230053 0.334777
v 0.083336 0.235473 0.396722
v 0.057403 0.239500 0.442751
vn -0.524800 -0.626900 0.575800
vn 0.200900 -0.708700 0.676300
vn -0.717600 -0.530900 0.450800
vn -0.822100 -0.455600 0.341500
vn -0.879200 -0.404000 0.252600
vn -0.911100 -0.371300 0.179100
vn -0.928300 -0.353300 0.115700
vn -0.936000 -0.347200 0.058100
vn -0.936000 -0.352100 0.003000
vn -0.928300 -0.368000 -0.052600
vn -0.911100 -0.396800 -0.111900
vn -0.879200 -0.441700 -0.178700
vn -0.822100 -0.507900 -0.257200
vn -0.717600 -0.601100 -0.351700
vn -0.524800 -0.717400 -0.458200
vn -0.200900 -0.815400 -0.543000
vn 0.200900 -0.815400 -0.543000
vn 0.524800 -0.717400 -0.458200
vn 0.717600 -0.601100 -0.351700
vn 0.822100 -0.507900 -0.257200
vn 0.879200 -0.441700 -0.178600
vn 0.911100 -0.396800 -0.111900
vn 0.928300 -0.368000 -0.052600
vn 0.936000 -0.352100 0.003000
vn 0.936000 -0.347200 0.058100
vn 0.928300 -0.353300 0.115700
vn 0.911100 -0.371300 0.179100
vn 0.879200 -0.404000 0.252600
vn 0.822100 -0.455600 0.341500
vn 0.717600 -0.530900 0.450800
vn -0.200900 -0.708700 0.676300
vn 0.524800 -0.626900 0.575800
vn 0.000000 0.996200 -0.087100
vn 0.000000 0.996200 -0.087200
usemtl None
s off
f 118//121 119//121 120//121
f 121//122 119//122 122//122
f 119//123 118//123 123//123
f 124//124 119//124 123//124
f 125//125 119//125 124//125
f 126//126 119//126 125//126
f 127//127 119//127 126//127
f 128//128 119//128 127//128
f 129//129 119//129 128//129
f 130//130 119//130 129//130
f 131//131 119//131 130//131
f 132//132 119//132 131//132
f 133//133 119//133 132//133
f 134//134 119//134 133//134
f 135//135 119//135 134//135
f 136//136 119//136 135//136
f 137//137 119//137 136//137
f 138//138 119//138 137//138
f 139//139 119//139 138//139
f 140//140 119//140 139//140
f 141//141 119//141 140//141
f 142//142 119//142 141//142
f 143//143 119//143 142//143
f 144//144 119//144 143//144
f 145//145 119//145 144//145
f 146//146 119//146 145//146
f 147//147 119//147 146//147
f 148//148 119//148 147//148
f 149//149 119//149 148//149
f 150//150 119//150 149//150
f 120//151 119//151 121//151
f 122//152 119//152 150//152
f 118//153 122//153 150//153
f 123//154 148//154 124//154
f 125//154 147//154 126//154
f 129//154 143//154 130//154
f 148//154 147//154 124//154
f 139//154 138//154 133//154
f 137//153 136//153 135//153
f 137//154 135//154 138//154
f 139//154 132//154 140//154
f 131//154 130//154 141//154
f 143//154 128//154 144//154
f 145//153 127//153 146//153
f 130//154 142//154 141//154
f 149//154 123//154 150//154
f 120//154 121//154 122//154
f 120//153 122//153 118//153
f 139//154 133//154 132//154
f 143//154 142//154 130//154
f 123//154 149//154 148//154
f 132//153 131//153 141//153
f 147//153 125//153 124//153
f 143//154 129//154 128//154
f 128//154 127//154 144//154
f 138//154 135//154 134//154
f 123//154 118//154 150//154
f 126//154 147//154 146//154
f 127//154 145//154 144//154
f 140//153 132//153 141//153
f 138//154 134//154 133//154
f 127//154 126//154 146//154
o Cylinder.001
v 0.000000 0.180000 -0.100000
v 0.000000 0.320000 -0.100000
v 0.019509 0.320000 -0.098079
v 0.019509 0.180000 -0.098079
v 0.038268 0.320000 -0.092388
v 0.038268 0.180000 -0.092388
v 0.055557 0.320000 -0.083147
v 0.055557 0.180000 -0.083147
v 0.070711 0.320000 -0.070711
v 0.070711 0.180000 -0.070711
v 0.083147 0.320000 -0.055557
v 0.083147 0.180000 -0.055557
v 0.092388 0.320000 -0.038268
v 0.092388 0.180000 -0.038268
v 0.098079 0.320000 -0.019509
v 0.098079 0.180000 -0.019509
v 0.100000 0.320000 0.000000
v 0.100000 0.180000 0.000000
v 0.098079 0.320000 0.019509
v 0.098079 0.180000 0.019509
v 0.092388 0.320000 0.038268
v 0.092388 0.180000 0.038268
v 0.083147 0.320000 0.055557
v 0.083147 0.180000 0.055557
v 0.070711 0.320000 0.070711
v 0.070711 0.180000 0.070711
v 0.055557 0.320000 0.083147
v 0.055557 0.180000 0.083147
v 0.038268 0.320000 0.092388
v 0.038268 0.180000 0.092388
v 0.019509 0.320000 0.098079
v 0.019509 0.180000 0.098079
v 0.000000 0.320000 0.100000
v 0.000000 0.180000 0.100000
v -0.019509 0.320000 0.098079
v -0.019509 0.180000 0.098079
v -0.038268 0.320000 0.092388
v -0.038268 0.180000 0.092388
v -0.055557 0.320000 0.083147
v -0.055557 0.180000 0.083147
v -0.070711 0.320000 0.070711
v -0.070711 0.180000 0.070711
v -0.083147 0.320000 0.055557
v -0.083147 0.180000 0.055557
v -0.092388 0.320000 0.038268
v -0.092388 0.180000 0.038268
v -0.098079 0.320000 0.019509
v -0.098079 0.180000 0.019509
v -0.100000 0.320000 0.000000
v -0.100000 0.180000 0.000000
v -0.098079 0.320000 -0.019509
v -0.098079 0.180000 -0.019509
v -0.092388 0.320000 -0.038268
v -0.092388 0.180000 -0.038268
v -0.083147 0.320000 -0.055557
v -0.083147 0.180000 -0.055557
v -0.070711 0.320000 -0.070711
v -0.070711 0.180000 -0.070711
v -0.055557 0.320000 -0.083147
v -0.055557 0.180000 -0.083147
v -0.038268 0.320000 -0.092388
v -0.038268 0.180000 -0.092388
v -0.019509 0.320000 -0.098079
v -0.019509 0.180000 -0.098079
vn 0.098000 0.000000 -0.995200
vn 0.290300 0.000000 -0.956900
vn 0.471400 0.000000 -0.881900
vn 0.634400 0.000000 -0.773000
vn 0.773000 0.000000 -0.634400
vn 0.881900 0.000000 -0.471400
vn 0.956900 -0.000000 -0.290300
vn 0.995200 0.000000 -0.098000
vn 0.995200 -0.000000 0.098000
vn 0.956900 -0.000000 0.290300
vn 0.881900 -0.000000 0.471400
vn 0.773000 -0.000000 0.634400
vn 0.634400 -0.000000 0.773000
vn 0.471400 -0.000000 0.881900
vn 0.290300 -0.000000 0.956900
vn 0.098000 -0.000000 0.995200
vn -0.098000 -0.000000 0.995200
vn -0.290300 -0.000000 0.956900
vn -0.471400 -0.000000 0.881900
vn -0.634400 -0.000000 0.773000
vn -0.773000 -0.000000 0.634400
vn -0.881900 -0.000000 0.471400
vn -0.956900 -0.000000 0.290300
vn -0.995200 -0.000000 0.098000
vn -0.995200 0.000000 -0.098000
vn -0.956900 0.000000 -0.290300
vn -0.881900 0.000000 -0.471400
vn -0.773000 0.000000 -0.634400
vn -0.634400 0.000000 -0.773000
vn -0.471400 0.000000 -0.881900
vn -0.098000 0.000000 -0.995200
vn -0.290300 0.000000 -0.956900
vn 0.000000 -1.000000 0.000000
vn 0.000000 1.000000 -0.000000
usemtl None
s off
f 152//155 153//155 154//155
f 153//156 155//156 156//156
f 155//157 157//157 158//157
f 158//158 157//158 159//158
f 159//159 161//159 162//159
f 161//160 163//160 164//160
f 163//161 165//161 166//161
f 165//162 167//162 168//162
f 167//163 169//163 170//163
f 169//164 171//164 172//164
f 171//165 173//165 174//165
f 173//166 175//166 176//166
f 176//167 175//167 177//167
f 177//168 179//168 180//168
f 179//169 181//169 182//169
f 181//170 183//170 184//170
f 183//171 185//171 186//171
f 185//172 187//172 188//172
f 188//173 187//173 189//173
f 189//174 191//174 192//174
f 191//175 193//175 194//175
f 194//176 193//176 195//176
f 195//177 197//177 198//177
f 197//178 199//178 200//178
f 199//179 201//179 202//179
f 201//180 203//180 204//180
f 204//181 203//181 205//181
f 205//182 207//182 208//182
f 207//183 209//183 210//183
f 210//184 209//184 211//184
f 151//185 214//185 213//185
f 211//186 213//186 214//186
f 196//187 188//187 194//187
f 187//188 195//188 189//188
f 151//155 152//155 154//155
f 154//156 153//156 156//156
f 156//157 155//157 158//157
f 160//158 158//158 159//158
f 160//159 159//159 162//159
f 162//160 161//160 164//160
f 164//161 163//161 166//161
f 166//162 165//162 168//162
f 168//163 167//163 170//163
f 170//164 169//164 172//164
f 172//165 171//165 174//165
f 174//166 173//166 176//166
f 178//167 176//167 177//167
f 178//168 177//168 180//168
f 180//169 179//169 182//169
f 182//170 181//170 184//170
f 184//171 183//171 186//171
f 186//172 185//172 188//172
f 190//173 188//173 189//173
f 190//174 189//174 192//174
f 192//175 191//175 194//175
f 196//176 194//176 195//176
f 196//177 195//177 198//177
f 198//178 197//178 200//178
f 200//179 199//179 202//179
f 202//180 201//180 204//180
f 206//181 204//181 205//181
f 206//182 205//182 208//182
f 208//183 207//183 210//183
f 212//184 210//184 211//184
f 152//185 151//185 213//185
f 212//186 211//186 214//186
f 204//187 206//187 212//187
f 168//187 170//187 172//187
f 182//187 184//187 180//187
f 174//187 176//187 178//187
f 156//187 158//187 162//187
f 200//187 202//187 204//187
f 166//187 168//187 164//187
f 158//187 160//187 162//187
f 204//187 156//187 164//187
f 184//187 186//187 188//187
f 214//187 151//187 212//187
f 206//187 208//187 210//187
f 188//187 190//187 194//187
f 164//187 156//187 162//187
f 198//187 200//187 196//187
f 190//187 192//187 194//187
f 188//187 172//187 180//187
f 209//188 207//188 205//188
f 156//187 204//187 212//187
f 203//188 201//188 199//188
f 172//187 174//187 180//187
f 178//187 180//187 174//187
f 196//187 204//187 172//187
f 210//187 212//187 206//187
f 180//187 184//187 188//187
f 164//187 168//187 172//187
f 212//187 151//187 156//187
f 196//187 200//187 204//187
f 172//187 188//187 196//187
f 164//187 172//187 204//187
f 151//187 154//187 156//187
f 183//188 179//188 187//188
f 199//188 197//188 195//188
f 153//188 152//188 155//188
f 161//188 159//188 157//188
f 163//188 203//188 179//188
f 183//188 181//188 179//188
f 169//188 167//188 171//188
f 177//188 175//188 173//188
f 195//188 193//188 189//188
f 163//188 161//188 157//188
f 185//188 183//188 187//188
f 193//188 191//188 189//188
f 167//188 165//188 163//188
f 171//188 163//188 179//188
f 152//188 213//188 211//188
f 171//188 179//188 173//188
f 211//188 163//188 155//188
f 179//188 177//188 173//188
f 199//188 195//188 203//188
f 211//188 209//188 205//188
f 203//188 163//188 211//188
f 155//188 152//188 211//188
f 171//188 167//188 163//188
f 179//188 195//188 187//188
f 203//188 211//188 205//188
f 155//188 163//188 157//188
f 203//188 195//188 179//188
