# Blender v2.72 (sub 0) OBJ File: ''
# www.blender.org
mtllib stupidShip.mtl
g Cylinder
v 0.000000 0.265981 0.029833
v 0.000000 0.525981 0.480167
v 0.005853 0.265482 0.030122
v 0.005853 0.525482 0.480455
v 0.011481 0.264003 0.030975
v 0.011481 0.524003 0.481308
v 0.016667 0.261602 0.032361
v 0.016667 0.521602 0.482695
v 0.021213 0.258371 0.034227
v 0.021213 0.518371 0.484560
v 0.024944 0.254434 0.036500
v 0.024944 0.514434 0.486833
v 0.027716 0.249942 0.039093
v 0.027716 0.509942 0.489426
v 0.029424 0.245069 0.041907
v 0.029424 0.505069 0.492240
v 0.030000 0.240000 0.044833
v 0.030000 0.500000 0.495167
v 0.029424 0.234931 0.047760
v 0.029424 0.494931 0.498093
v 0.027716 0.230058 0.050574
v 0.027716 0.490058 0.500907
v 0.024944 0.225566 0.053167
v 0.024944 0.485566 0.503500
v 0.021213 0.221629 0.055440
v 0.021213 0.481629 0.505773
v 0.016667 0.218398 0.057305
v 0.016667 0.478398 0.507639
v 0.011481 0.215997 0.058692
v 0.011481 0.475997 0.509025
v 0.005853 0.214518 0.059545
v 0.005853 0.474518 0.509878
v -0.000000 0.214019 0.059833
v -0.000000 0.474019 0.510167
v -0.005853 0.214518 0.059545
v -0.005853 0.474518 0.509878
v -0.011481 0.215997 0.058692
v -0.011481 0.475997 0.509025
v -0.016667 0.218398 0.057305
v -0.016667 0.478398 0.507639
v -0.021213 0.221629 0.055440
v -0.021213 0.481629 0.505773
v -0.024944 0.225566 0.053167
v -0.024944 0.485566 0.503500
v -0.027716 0.230058 0.050574
v -0.027716 0.490058 0.500907
v -0.029424 0.234931 0.047760
v -0.029424 0.494931 0.498093
v -0.030000 0.240000 0.044833
v -0.030000 0.500000 0.495167
v -0.029424 0.245069 0.041907
v -0.029424 0.505069 0.492240
v -0.027716 0.249942 0.039093
v -0.027716 0.509942 0.489426
v -0.024944 0.254434 0.036500
v -0.024944 0.514434 0.486833
v -0.021213 0.258371 0.034227
v -0.021213 0.518371 0.484560
v -0.016667 0.261602 0.032361
v -0.016667 0.521602 0.482695
v -0.011480 0.264003 0.030975
v -0.011480 0.524003 0.481308
v -0.005853 0.265482 0.030122
v -0.005853 0.525482 0.480455
vn 0.098000 0.861900 -0.497600
vn 0.290300 0.828700 -0.478500
vn 0.471400 0.763800 -0.441000
vn 0.634400 0.669400 -0.386500
vn 0.773000 0.549400 -0.317200
vn 0.881900 0.408200 -0.235700
vn 0.956900 0.251400 -0.145100
vn 0.995200 0.084900 -0.049000
vn 0.995200 -0.084900 0.049000
vn 0.956900 -0.251400 0.145100
vn 0.881900 -0.408200 0.235700
vn 0.773000 -0.549400 0.317200
vn 0.634400 -0.669400 0.386500
vn 0.471400 -0.763800 0.441000
vn 0.290300 -0.828700 0.478500
vn 0.098000 -0.861900 0.497600
vn -0.098000 -0.861900 0.497600
vn -0.290300 -0.828700 0.478500
vn -0.471400 -0.763800 0.441000
vn -0.634400 -0.669400 0.386500
vn -0.773000 -0.549400 0.317200
vn -0.881900 -0.408200 0.235700
vn -0.956900 -0.251400 0.145100
vn -0.995200 -0.084900 0.049000
vn -0.995200 0.084900 -0.049000
vn -0.956900 0.251400 -0.145100
vn -0.881900 0.408200 -0.235700
vn -0.773000 0.549400 -0.317200
vn -0.634400 0.669400 -0.386500
vn -0.471400 0.763800 -0.441000
vn 0.000000 0.500000 0.866000
vn -0.098000 0.861900 -0.497600
vn -0.290300 0.828700 -0.478500
vn 0.000000 -0.500000 -0.866000
usemtl None
s off
f 1//1 2//1 4//1 3//1
f 3//2 4//2 6//2 5//2
f 5//3 6//3 8//3 7//3
f 7//4 8//4 10//4 9//4
f 9//5 10//5 12//5 11//5
f 11//6 12//6 14//6 13//6
f 13//7 14//7 16//7 15//7
f 15//8 16//8 18//8 17//8
f 17//9 18//9 20//9 19//9
f 19//10 20//10 22//10 21//10
f 21//11 22//11 24//11 23//11
f 23//12 24//12 26//12 25//12
f 25//13 26//13 28//13 27//13
f 27//14 28//14 30//14 29//14
f 29//15 30//15 32//15 31//15
f 31//16 32//16 34//16 33//16
f 33//17 34//17 36//17 35//17
f 35//18 36//18 38//18 37//18
f 37//19 38//19 40//19 39//19
f 39//20 40//20 42//20 41//20
f 41//21 42//21 44//21 43//21
f 43//22 44//22 46//22 45//22
f 45//23 46//23 48//23 47//23
f 47//24 48//24 50//24 49//24
f 49//25 50//25 52//25 51//25
f 51//26 52//26 54//26 53//26
f 53//27 54//27 56//27 55//27
f 55//28 56//28 58//28 57//28
f 57//29 58//29 60//29 59//29
f 59//30 60//30 62//30 61//30
f 4//31 2//31 64//31 62//31 60//31 58//31 56//31 54//31 52//31 50//31 48//31 46//31 44//31 42//31 40//31 38//31 36//31 34//31 32//31 30//31 28//31 26//31 24//31 22//31 20//31 18//31 16//31 14//31 12//31 10//31 8//31 6//31
f 63//32 64//32 2//32 1//32
f 61//33 62//33 64//33 63//33
f 1//34 3//34 5//34 7//34 9//34 11//34 13//34 15//34 17//34 19//34 21//34 23//34 25//34 27//34 29//34 31//34 33//34 35//34 37//34 39//34 41//34 43//34 45//34 47//34 49//34 51//34 53//34 55//34 57//34 59//34 61//34 63//34
g Bug_Cone
v 0.000000 0.242817 0.480666
v 0.029264 0.241979 0.471095
v 0.057403 0.239500 0.442751
v 0.083336 0.235473 0.396722
v 0.106066 0.230053 0.334777
v 0.124720 0.223449 0.259297
v 0.138582 0.215915 0.173182
v 0.147118 0.207741 0.079743
v 0.150000 0.199239 -0.017431
v 0.000000 -0.199239 0.017431
v 0.147118 0.190737 -0.114605
v 0.138582 0.182562 -0.208045
v 0.124720 0.175028 -0.294159
v 0.106066 0.168425 -0.369639
v 0.083336 0.163005 -0.431584
v 0.057402 0.158978 -0.477613
v 0.029264 0.156498 -0.505958
v -0.000000 0.155661 -0.515529
v -0.029264 0.156498 -0.505958
v -0.057403 0.158978 -0.477613
v -0.083336 0.163005 -0.431584
v -0.106066 0.168425 -0.369639
v -0.124721 0.175028 -0.294159
v -0.138582 0.182562 -0.208044
v -0.147118 0.190737 -0.114605
v -0.150000 0.199239 -0.017431
v -0.147118 0.207741 0.079743
v -0.138582 0.215916 0.173183
v -0.124720 0.223450 0.259297
v -0.106066 0.230053 0.334777
v -0.083335 0.235473 0.396722
v -0.057402 0.239500 0.442751
v -0.029263 0.241979 0.471096
vn -0.524800 -0.626900 0.575800
vn 0.200900 -0.708700 0.676300
vn -0.717600 -0.530900 0.450800
vn -0.822100 -0.455600 0.341500
vn -0.879200 -0.404000 0.252600
vn -0.911100 -0.371300 0.179100
vn -0.928300 -0.353300 0.115700
vn -0.936000 -0.347200 0.058100
vn -0.936000 -0.352100 0.003000
vn -0.928300 -0.368000 -0.052600
vn -0.911100 -0.396800 -0.111900
vn -0.879200 -0.441700 -0.178600
vn -0.822100 -0.508000 -0.257200
vn -0.717600 -0.601100 -0.351700
vn -0.524800 -0.717400 -0.458200
vn -0.200900 -0.815400 -0.543000
vn 0.200900 -0.815400 -0.543000
vn 0.524800 -0.717400 -0.458200
vn 0.717600 -0.601100 -0.351700
vn 0.822100 -0.508000 -0.257200
vn 0.879200 -0.441700 -0.178600
vn 0.911100 -0.396800 -0.111900
vn 0.928300 -0.368000 -0.052600
vn 0.936000 -0.352100 0.003000
vn 0.936000 -0.347200 0.058100
vn 0.928300 -0.353300 0.115700
vn 0.911100 -0.371300 0.179100
vn 0.879200 -0.404000 0.252600
vn 0.822100 -0.455600 0.341500
vn 0.717600 -0.530900 0.450800
vn -0.200900 -0.708700 0.676300
vn 0.524800 -0.626900 0.575800
vn -0.000000 0.996200 -0.087200
usemtl None
s off
f 96//35 74//35 97//35
f 65//36 74//36 66//36
f 95//37 74//37 96//37
f 94//38 74//38 95//38
f 93//39 74//39 94//39
f 92//40 74//40 93//40
f 91//41 74//41 92//41
f 90//42 74//42 91//42
f 89//43 74//43 90//43
f 88//44 74//44 89//44
f 87//45 74//45 88//45
f 86//46 74//46 87//46
f 85//47 74//47 86//47
f 84//48 74//48 85//48
f 83//49 74//49 84//49
f 82//50 74//50 83//50
f 81//51 74//51 82//51
f 80//52 74//52 81//52
f 79//53 74//53 80//53
f 78//54 74//54 79//54
f 77//55 74//55 78//55
f 76//56 74//56 77//56
f 75//57 74//57 76//57
f 73//58 74//58 75//58
f 72//59 74//59 73//59
f 71//60 74//60 72//60
f 70//61 74//61 71//61
f 69//62 74//62 70//62
f 68//63 74//63 69//63
f 67//64 74//64 68//64
f 97//65 74//65 65//65
f 66//66 74//66 67//66
f 65//67 66//67 67//67 68//67 69//67 70//67 71//67 72//67 73//67 75//67 76//67 77//67 78//67 79//67 80//67 81//67 82//67 83//67 84//67 85//67 86//67 87//67 88//67 89//67 90//67 91//67 92//67 93//67 94//67 95//67 96//67 97//67
g Heck_Cone.001
v 0.000000 0.016928 -1.260015
v 0.029264 0.020214 -1.269043
v 0.057403 0.029946 -1.295780
v 0.083336 0.045749 -1.339199
v 0.106066 0.067016 -1.397630
v 0.124720 0.092930 -1.468829
v 0.138582 0.122496 -1.550059
v 0.147118 0.154576 -1.638199
v 0.150000 0.187939 -1.729862
v 0.000000 -0.187939 -1.866670
v 0.147118 0.221301 -1.821524
v 0.138582 0.253381 -1.909664
v 0.124720 0.282947 -1.990894
v 0.106066 0.308861 -2.062093
v 0.083336 0.330128 -2.120525
v 0.057402 0.345931 -2.163943
v 0.029264 0.355663 -2.190680
v -0.000000 0.358949 -2.199708
v -0.029264 0.355663 -2.190680
v -0.057403 0.345931 -2.163943
v -0.083336 0.330128 -2.120524
v -0.106066 0.308861 -2.062093
v -0.124721 0.282947 -1.990894
v -0.138582 0.253381 -1.909664
v -0.147118 0.221301 -1.821524
v -0.150000 0.187938 -1.729861
v -0.147118 0.154576 -1.638199
v -0.138582 0.122496 -1.550059
v -0.124720 0.092930 -1.468829
v -0.106066 0.067016 -1.397630
v -0.083335 0.045749 -1.339198
v -0.057402 0.029946 -1.295780
v -0.029263 0.020214 -1.269043
vn -0.524800 -0.811500 0.257000
vn 0.200900 -0.928100 0.313400
vn -0.717600 -0.671600 0.184200
vn -0.822100 -0.557200 0.117000
vn -0.879200 -0.472900 0.058200
vn -0.911100 -0.412200 0.005400
vn -0.928300 -0.369100 -0.044400
vn -0.936000 -0.339300 -0.094100
vn -0.936000 -0.320400 -0.146000
vn -0.928300 -0.311300 -0.203200
vn -0.911100 -0.312300 -0.269100
vn -0.879200 -0.324800 -0.348600
vn -0.822100 -0.351700 -0.447800
vn -0.717600 -0.396100 -0.572800
vn -0.524800 -0.456500 -0.718500
vn -0.200900 -0.509500 -0.836700
vn 0.200900 -0.509500 -0.836700
vn 0.524800 -0.456500 -0.718500
vn 0.717600 -0.396100 -0.572800
vn 0.822100 -0.351700 -0.447800
vn 0.879200 -0.324800 -0.348600
vn 0.911100 -0.312300 -0.269100
vn 0.928300 -0.311300 -0.203200
vn 0.936000 -0.320400 -0.146000
vn 0.936000 -0.339300 -0.094100
vn 0.928300 -0.369100 -0.044400
vn 0.911100 -0.412200 0.005400
vn 0.879200 -0.472900 0.058200
vn 0.822100 -0.557200 0.117000
vn 0.717600 -0.671600 0.184200
vn -0.200900 -0.928100 0.313400
vn 0.524800 -0.811500 0.257000
vn 0.000000 0.939700 0.342000
usemtl None
s off
f 129//68 107//68 130//68
f 98//69 107//69 99//69
f 128//70 107//70 129//70
f 127//71 107//71 128//71
f 126//72 107//72 127//72
f 125//73 107//73 126//73
f 124//74 107//74 125//74
f 123//75 107//75 124//75
f 122//76 107//76 123//76
f 121//77 107//77 122//77
f 120//78 107//78 121//78
f 119//79 107//79 120//79
f 118//80 107//80 119//80
f 117//81 107//81 118//81
f 116//82 107//82 117//82
f 115//83 107//83 116//83
f 114//84 107//84 115//84
f 113//85 107//85 114//85
f 112//86 107//86 113//86
f 111//87 107//87 112//87
f 110//88 107//88 111//88
f 109//89 107//89 110//89
f 108//90 107//90 109//90
f 106//91 107//91 108//91
f 105//92 107//92 106//92
f 104//93 107//93 105//93
f 103//94 107//94 104//94
f 102//95 107//95 103//95
f 101//96 107//96 102//96
f 100//97 107//97 101//97
f 130//98 107//98 98//98
f 99//99 107//99 100//99
f 98//100 99//100 100//100 101//100 102//100 103//100 104//100 105//100 106//100 108//100 109//100 110//100 111//100 112//100 113//100 114//100 115//100 116//100 117//100 118//100 119//100 120//100 121//100 122//100 123//100 124//100 125//100 126//100 127//100 128//100 129//100 130//100
g Plane.001
v -0.160505 0.234923 0.060000
v 0.010505 -0.234923 0.060000
v -0.160505 0.234923 -1.940000
v 0.010505 -0.234923 -1.940000
vn 0.939700 0.342000 0.000000
usemtl None
s off
f 131//101 132//101 134//101 133//101
g Deck_Plane.002
v -0.140000 0.198773 0.090000
v 0.140000 0.198773 0.090000
v -0.140000 0.198773 -1.810000
v 0.140000 0.198773 -1.810000
vn 0.000000 1.000000 0.000000
usemtl None
s off
f 135//102 136//102 138//102 137//102
g Plane.000_Plane.003
v -0.010505 -0.234923 0.060000
v 0.160505 0.234923 0.060000
v -0.010505 -0.234923 -1.940000
v 0.160505 0.234923 -1.940000
vn -0.939700 0.342000 0.000000
usemtl None
s off
f 139//103 140//103 142//103 141//103
g Cube.001_Cube.002
v -0.100000 0.190000 -0.599999
v -0.100000 0.190000 -1.759999
v 0.100000 0.190000 -1.759999
v 0.100000 0.190000 -0.599999
v -0.100000 0.390000 -0.599999
v -0.100000 0.390000 -1.759999
v 0.100000 0.390000 -1.759999
v 0.100000 0.390000 -0.599999
vn -1.000000 0.000000 0.000000
vn 0.000000 0.000000 -1.000000
vn 1.000000 0.000000 0.000000
vn 0.000000 0.000000 1.000000
vn 0.000000 -1.000000 0.000000
vn 0.000000 1.000000 0.000000
usemtl None
s off
f 147//104 148//104 144//104 143//104
f 148//105 149//105 145//105 144//105
f 149//106 150//106 146//106 145//106
f 150//107 147//107 143//107 146//107
f 143//108 144//108 145//108 146//108
f 150//109 149//109 148//109 147//109
g Cylinder.001
v 0.000000 0.180000 -0.100000
v 0.000000 0.320000 -0.100000
v 0.019509 0.180000 -0.098079
v 0.019509 0.320000 -0.098079
v 0.038268 0.180000 -0.092388
v 0.038268 0.320000 -0.092388
v 0.055557 0.180000 -0.083147
v 0.055557 0.320000 -0.083147
v 0.070711 0.180000 -0.070711
v 0.070711 0.320000 -0.070711
v 0.083147 0.180000 -0.055557
v 0.083147 0.320000 -0.055557
v 0.092388 0.180000 -0.038268
v 0.092388 0.320000 -0.038268
v 0.098079 0.180000 -0.019509
v 0.098079 0.320000 -0.019509
v 0.100000 0.180000 -0.000000
v 0.100000 0.320000 -0.000000
v 0.098079 0.180000 0.019509
v 0.098079 0.320000 0.019509
v 0.092388 0.180000 0.038268
v 0.092388 0.320000 0.038268
v 0.083147 0.180000 0.055557
v 0.083147 0.320000 0.055557
v 0.070711 0.180000 0.070711
v 0.070711 0.320000 0.070711
v 0.055557 0.180000 0.083147
v 0.055557 0.320000 0.083147
v 0.038268 0.180000 0.092388
v 0.038268 0.320000 0.092388
v 0.019509 0.180000 0.098079
v 0.019509 0.320000 0.098079
v -0.000000 0.180000 0.100000
v -0.000000 0.320000 0.100000
v -0.019509 0.180000 0.098079
v -0.019509 0.320000 0.098079
v -0.038268 0.180000 0.092388
v -0.038268 0.320000 0.092388
v -0.055557 0.180000 0.083147
v -0.055557 0.320000 0.083147
v -0.070711 0.180000 0.070711
v -0.070711 0.320000 0.070711
v -0.083147 0.180000 0.055557
v -0.083147 0.320000 0.055557
v -0.092388 0.180000 0.038268
v -0.092388 0.320000 0.038268
v -0.098079 0.180000 0.019509
v -0.098079 0.320000 0.019509
v -0.100000 0.180000 -0.000000
v -0.100000 0.320000 -0.000000
v -0.098079 0.180000 -0.019509
v -0.098079 0.320000 -0.019509
v -0.092388 0.180000 -0.038268
v -0.092388 0.320000 -0.038268
v -0.083147 0.180000 -0.055557
v -0.083147 0.320000 -0.055557
v -0.070711 0.180000 -0.070711
v -0.070711 0.320000 -0.070711
v -0.055557 0.180000 -0.083147
v -0.055557 0.320000 -0.083147
v -0.038268 0.180000 -0.092388
v -0.038268 0.320000 -0.092388
v -0.019509 0.180000 -0.098079
v -0.019509 0.320000 -0.098079
vn 0.098000 0.000000 -0.995200
vn 0.290300 0.000000 -0.956900
vn 0.471400 0.000000 -0.881900
vn 0.634400 0.000000 -0.773000
vn 0.773000 0.000000 -0.634400
vn 0.881900 0.000000 -0.471400
vn 0.956900 0.000000 -0.290300
vn 0.995200 0.000000 -0.098000
vn 0.995200 0.000000 0.098000
vn 0.956900 0.000000 0.290300
vn 0.881900 0.000000 0.471400
vn 0.773000 0.000000 0.634400
vn 0.634400 0.000000 0.773000
vn 0.471400 0.000000 0.881900
vn 0.290300 0.000000 0.956900
vn 0.098000 0.000000 0.995200
vn -0.098000 0.000000 0.995200
vn -0.290300 0.000000 0.956900
vn -0.471400 0.000000 0.881900
vn -0.634400 0.000000 0.773000
vn -0.773000 0.000000 0.634400
vn -0.881900 0.000000 0.471400
vn -0.956900 0.000000 0.290300
vn -0.995200 0.000000 0.098000
vn -0.995200 0.000000 -0.098000
vn -0.956900 0.000000 -0.290300
vn -0.881900 0.000000 -0.471400
vn -0.773000 0.000000 -0.634400
vn -0.634400 0.000000 -0.773000
vn -0.471400 0.000000 -0.881900
vn 0.000000 1.000000 -0.000000
vn -0.098000 0.000000 -0.995200
vn -0.290300 0.000000 -0.956900
vn 0.000000 -1.000000 -0.000000
usemtl None
s off
f 151//110 152//110 154//110 153//110
f 153//111 154//111 156//111 155//111
f 155//112 156//112 158//112 157//112
f 157//113 158//113 160//113 159//113
f 159//114 160//114 162//114 161//114
f 161//115 162//115 164//115 163//115
f 163//116 164//116 166//116 165//116
f 165//117 166//117 168//117 167//117
f 167//118 168//118 170//118 169//118
f 169//119 170//119 172//119 171//119
f 171//120 172//120 174//120 173//120
f 173//121 174//121 176//121 175//121
f 175//122 176//122 178//122 177//122
f 177//123 178//123 180//123 179//123
f 179//124 180//124 182//124 181//124
f 181//125 182//125 184//125 183//125
f 183//126 184//126 186//126 185//126
f 185//127 186//127 188//127 187//127
f 187//128 188//128 190//128 189//128
f 189//129 190//129 192//129 191//129
f 191//130 192//130 194//130 193//130
f 193//131 194//131 196//131 195//131
f 195//132 196//132 198//132 197//132
f 197//133 198//133 200//133 199//133
f 199//134 200//134 202//134 201//134
f 201//135 202//135 204//135 203//135
f 203//136 204//136 206//136 205//136
f 205//137 206//137 208//137 207//137
f 207//138 208//138 210//138 209//138
f 209//139 210//139 212//139 211//139
f 154//140 152//140 214//140 212//140 210//140 208//140 206//140 204//140 202//140 200//140 198//140 196//140 194//140 192//140 190//140 188//140 186//140 184//140 182//140 180//140 178//140 176//140 174//140 172//140 170//140 168//140 166//140 164//140 162//140 160//140 158//140 156//140
f 213//141 214//141 152//141 151//141
f 211//142 212//142 214//142 213//142
f 151//143 153//143 155//143 157//143 159//143 161//143 163//143 165//143 167//143 169//143 171//143 173//143 175//143 177//143 179//143 181//143 183//143 185//143 187//143 189//143 191//143 193//143 195//143 197//143 199//143 201//143 203//143 205//143 207//143 209//143 211//143 213//143
