# Blender v2.72 (sub 0) OBJ File: ''
# www.blender.org
mtllib stupidShip3.mtl
o Cube.001_Cube.002
v -0.100000 0.390000 -1.020022
v -0.100000 0.190000 -1.020022
v -0.100000 0.190000 0.139978
v 0.100000 0.390000 -1.020022
v 0.100000 0.190000 -1.020022
v 0.100000 0.390000 0.139978
v 0.100000 0.190000 0.139978
v -0.100000 0.390000 0.139978
vn -1.000000 0.000000 0.000000
vn 0.000000 0.000000 -1.000000
vn 1.000000 0.000000 0.000000
vn 0.000000 0.000000 1.000000
vn 0.000000 -1.000000 -0.000000
vn 0.000000 1.000000 0.000000
usemtl None
s off
f 1//1 2//1 3//1
f 4//2 5//2 2//2
f 6//3 7//3 5//3
f 8//4 3//4 7//4
f 2//5 5//5 7//5
f 8//6 6//6 4//6
f 8//1 1//1 3//1
f 1//2 4//2 2//2
f 4//3 6//3 5//3
f 6//4 8//4 7//4
f 3//5 2//5 7//5
f 1//6 8//6 4//6
o Plane.001
v 0.010505 -0.234923 0.799977
v 0.010505 -0.234923 -1.200023
v -0.160505 0.234923 -1.200023
v -0.160505 0.234923 0.799977
vn 0.939700 0.342000 0.000000
usemtl None
s off
f 9//7 10//7 11//7
f 12//7 9//7 11//7
o Cylinder
v 0.000000 0.265981 0.769810
v 0.000000 0.525981 1.220144
v 0.005853 0.525482 1.220432
v 0.011481 0.524003 1.221285
v 0.011481 0.264003 0.770952
v 0.016667 0.521602 1.222672
v 0.016667 0.261602 0.772338
v 0.021213 0.518371 1.224537
v 0.021213 0.258371 0.774204
v 0.024944 0.514434 1.226810
v 0.027716 0.509942 1.229403
v 0.027716 0.249942 0.779070
v 0.029424 0.505069 1.232217
v 0.030000 0.500000 1.235144
v 0.030000 0.240000 0.784810
v 0.029424 0.494931 1.238070
v 0.029424 0.234931 0.787737
v 0.027716 0.490058 1.240884
v 0.024944 0.485566 1.243477
v 0.024944 0.225566 0.793144
v 0.021213 0.481629 1.245750
v 0.016667 0.478398 1.247616
v 0.016667 0.218398 0.797282
v 0.011481 0.475997 1.249002
v 0.005853 0.474518 1.249855
v 0.005853 0.214518 0.799522
v 0.000000 0.474019 1.250144
v -0.005853 0.474518 1.249855
v -0.005853 0.214518 0.799522
v -0.011481 0.475997 1.249002
v -0.016667 0.478398 1.247616
v -0.016667 0.218398 0.797282
v -0.021213 0.481629 1.245750
v -0.021213 0.221629 0.795417
v -0.024944 0.485566 1.243477
v -0.024944 0.225566 0.793144
v -0.027716 0.490058 1.240884
v -0.029424 0.494931 1.238070
v -0.029424 0.234931 0.787737
v -0.030000 0.500000 1.235144
v -0.029424 0.505069 1.232217
v -0.029424 0.245069 0.781884
v -0.027716 0.509942 1.229403
v -0.027716 0.249942 0.779070
v -0.024944 0.514434 1.226810
v -0.024944 0.254434 0.776477
v -0.021213 0.518371 1.224537
v -0.016667 0.521602 1.222672
v -0.016667 0.261602 0.772338
v -0.011480 0.524003 1.221285
v -0.011480 0.264003 0.770952
v -0.005853 0.265482 0.770099
v -0.005853 0.525482 1.220432
v -0.021213 0.258371 0.774204
v 0.005853 0.265482 0.770099
v 0.024944 0.254434 0.776477
v 0.029424 0.245069 0.781884
v 0.027716 0.230058 0.790551
v 0.021213 0.221629 0.795417
v 0.011481 0.215997 0.798669
v 0.000000 0.214019 0.799810
v -0.011481 0.215997 0.798669
v -0.027716 0.230058 0.790551
v -0.030000 0.240000 0.784810
vn 0.098000 0.861900 -0.497600
vn 0.290300 0.828700 -0.478500
vn 0.471500 0.763700 -0.440900
vn 0.634400 0.669500 -0.386500
vn 0.773000 0.549400 -0.317200
vn 0.881900 0.408200 -0.235700
vn 0.956900 0.251500 -0.145200
vn 0.995200 0.084800 -0.049000
vn 0.995200 -0.084800 0.049000
vn 0.956900 -0.251500 0.145200
vn 0.881900 -0.408200 0.235700
vn 0.773000 -0.549400 0.317200
vn 0.634400 -0.669400 0.386500
vn 0.471500 -0.763700 0.440900
vn 0.290300 -0.828700 0.478500
vn 0.098100 -0.861900 0.497600
vn -0.098100 -0.861900 0.497600
vn -0.290300 -0.828700 0.478500
vn -0.471500 -0.763700 0.440900
vn -0.634400 -0.669400 0.386500
vn -0.773000 -0.549400 0.317200
vn -0.881900 -0.408200 0.235700
vn -0.956900 -0.251500 0.145200
vn -0.995200 -0.084800 0.049000
vn -0.995200 0.084800 -0.049000
vn -0.956900 0.251500 -0.145200
vn -0.881900 0.408200 -0.235700
vn -0.773000 0.549400 -0.317200
vn -0.634400 0.669500 -0.386500
vn -0.471500 0.763700 -0.440900
vn -0.098100 0.861900 -0.497600
vn -0.290300 0.828700 -0.478500
vn -0.000300 -0.499800 -0.866100
vn -0.000300 0.499800 0.866100
vn 0.098100 0.861900 -0.497600
vn 0.471400 0.763700 -0.440900
vn 0.634400 0.669400 -0.386500
vn 0.634400 -0.669500 0.386500
vn 0.097900 -0.861900 0.497600
vn -0.097900 -0.861900 0.497600
vn -0.634400 -0.669500 0.386500
vn -0.634400 0.669400 -0.386500
vn -0.471400 0.763800 -0.441000
vn -0.098000 0.861900 -0.497600
vn -0.000400 -0.501000 -0.865400
vn -0.000000 -0.500000 -0.866000
vn 0.000400 -0.501000 -0.865400
vn 0.000100 -0.500000 -0.866000
vn -0.000100 -0.500000 -0.866000
vn -0.000300 -0.500000 -0.866000
vn 0.000800 -0.499900 -0.866100
vn 0.000300 0.499800 0.866100
vn -0.000300 -0.500500 -0.865800
vn 0.000100 -0.500400 -0.865800
vn 0.000000 -0.500000 -0.866100
vn 0.000300 -0.500400 -0.865800
vn 0.000000 0.500000 0.866000
vn -0.001000 -0.499900 -0.866100
vn 0.000300 -0.499800 -0.866100
vn -0.000300 -0.498800 -0.866700
vn 0.000000 -0.499800 -0.866200
vn -0.000200 -0.500000 -0.866000
vn -0.000000 -0.500100 -0.866000
vn 0.000200 -0.500000 -0.866000
vn -0.000200 0.500600 0.865700
vn -0.000300 0.499800 0.866200
vn 0.000400 0.501000 0.865400
vn 0.000100 0.500000 0.866000
vn -0.000300 0.500000 0.866000
vn -0.000100 0.500000 0.866000
vn 0.000000 0.499500 0.866300
vn -0.000300 0.500400 0.865800
vn 0.000000 0.501300 0.865300
vn 0.000400 0.500400 0.865800
vn 0.000000 0.500100 0.866000
vn -0.000800 0.499900 0.866100
vn 0.000400 0.500000 0.866000
vn 0.000200 0.500000 0.866000
vn 0.000800 0.499900 0.866100
vn 0.000000 0.499800 0.866100
vn -0.000200 0.500000 0.866000
usemtl None
s off
f 13//8 14//8 15//8
f 15//9 16//9 17//9
f 17//10 16//10 18//10
f 19//11 18//11 20//11
f 21//12 20//12 22//12
f 22//13 23//13 24//13
f 24//14 23//14 25//14
f 25//15 26//15 27//15
f 26//16 28//16 29//16
f 29//17 28//17 30//17
f 30//18 31//18 32//18
f 32//19 31//19 33//19
f 33//20 34//20 35//20
f 35//21 34//21 36//21
f 36//22 37//22 38//22
f 38//23 37//23 39//23
f 39//24 40//24 41//24
f 41//25 40//25 42//25
f 42//26 43//26 44//26
f 44//27 43//27 45//27
f 46//28 45//28 47//28
f 48//29 47//29 49//29
f 49//30 50//30 51//30
f 51//31 50//31 52//31
f 52//32 53//32 54//32
f 53//33 55//33 56//33
f 55//34 57//34 58//34
f 58//35 57//35 59//35
f 59//36 60//36 61//36
f 60//37 62//37 63//37
f 13//38 64//38 65//38
f 63//39 62//39 65//39
f 58//40 66//40 56//40
f 49//41 47//41 45//41
f 67//42 13//42 15//42
f 67//9 15//9 17//9
f 19//43 17//43 18//43
f 21//44 19//44 20//44
f 68//12 21//12 22//12
f 68//13 22//13 24//13
f 69//14 24//14 25//14
f 69//15 25//15 27//15
f 27//16 26//16 29//16
f 70//17 29//17 30//17
f 70//18 30//18 32//18
f 71//19 32//19 33//19
f 71//45 33//45 35//45
f 72//21 35//21 36//21
f 72//22 36//22 38//22
f 73//46 38//46 39//46
f 73//47 39//47 41//47
f 74//25 41//25 42//25
f 74//26 42//26 44//26
f 46//48 44//48 45//48
f 48//28 46//28 47//28
f 75//29 48//29 49//29
f 75//30 49//30 51//30
f 76//31 51//31 52//31
f 76//32 52//32 54//32
f 54//33 53//33 56//33
f 56//34 55//34 58//34
f 66//35 58//35 59//35
f 66//49 59//49 61//49
f 61//50 60//50 63//50
f 14//51 13//51 65//51
f 64//39 63//39 65//39
f 41//52 74//52 44//52
f 41//53 44//53 73//53
f 35//54 72//54 38//54
f 35//55 70//55 71//55
f 75//56 44//56 46//56
f 29//57 70//57 27//57
f 24//58 69//58 27//58
f 57//59 55//59 59//59
f 67//60 17//60 19//60
f 63//61 13//61 67//61
f 35//62 44//62 70//62
f 61//63 63//63 66//63
f 49//64 45//64 33//64
f 54//65 56//65 76//65
f 21//66 68//66 24//66
f 48//66 75//66 46//66
f 73//53 44//53 35//53
f 38//53 73//53 35//53
f 64//67 13//67 63//67
f 21//53 24//53 56//53
f 19//68 63//68 67//68
f 70//40 32//40 71//40
f 44//53 24//53 70//53
f 75//55 51//55 76//55
f 70//69 24//69 27//69
f 19//70 21//70 63//70
f 66//53 21//53 56//53
f 75//56 56//56 44//56
f 24//53 44//53 56//53
f 21//53 66//53 63//53
f 56//71 75//71 76//71
f 60//72 14//72 62//72
f 23//73 22//73 20//73
f 18//74 16//74 15//74
f 18//75 23//75 20//75
f 30//75 23//75 18//75
f 25//76 23//76 26//76
f 55//77 60//77 59//77
f 14//78 65//78 62//78
f 37//79 36//79 34//79
f 40//80 39//80 37//80
f 43//81 42//81 40//81
f 43//82 34//82 45//82
f 50//83 49//83 52//83
f 55//84 53//84 52//84
f 14//64 60//64 18//64
f 15//82 14//82 18//82
f 49//85 55//85 52//85
f 30//86 28//86 26//86
f 40//87 37//87 34//87
f 40//87 34//87 43//87
f 33//64 30//64 49//64
f 55//77 49//77 60//77
f 30//64 60//64 49//64
f 45//82 34//82 33//82
f 23//88 30//88 26//88
f 33//59 31//59 30//59
f 60//64 30//64 18//64
o Deck_Plane.002
v 0.140000 0.198773 0.829977
v 0.140000 0.198773 -1.070023
v -0.140000 0.198773 -1.070023
v -0.140000 0.198773 0.829977
vn 0.000000 1.000000 0.000000
usemtl None
s off
f 77//89 78//89 79//89
f 80//89 77//89 79//89
o Cylinder.001
v 0.000000 0.320000 0.639977
v 0.019509 0.320000 0.641898
v 0.019509 0.180000 0.641898
v 0.038268 0.320000 0.647589
v 0.038268 0.180000 0.647589
v 0.055557 0.320000 0.656830
v 0.055557 0.180000 0.656830
v 0.070711 0.320000 0.669266
v 0.083147 0.320000 0.684420
v 0.083147 0.180000 0.684420
v 0.092388 0.320000 0.701709
v 0.092388 0.180000 0.701709
v 0.098079 0.320000 0.720468
v 0.098079 0.180000 0.720468
v 0.100000 0.320000 0.739977
v 0.100000 0.180000 0.739977
v 0.098079 0.320000 0.759486
v 0.098079 0.180000 0.759486
v 0.092388 0.320000 0.778245
v 0.092388 0.180000 0.778245
v 0.083147 0.320000 0.795534
v 0.083147 0.180000 0.795534
v 0.070711 0.320000 0.810688
v 0.070711 0.180000 0.810688
v 0.055557 0.320000 0.823124
v 0.038268 0.320000 0.832365
v 0.038268 0.180000 0.832365
v 0.019509 0.320000 0.838056
v 0.019509 0.180000 0.838056
v 0.000000 0.320000 0.839977
v 0.000000 0.180000 0.839977
v -0.019509 0.320000 0.838056
v -0.019509 0.180000 0.838056
v -0.038268 0.320000 0.832365
v -0.038268 0.180000 0.832365
v -0.055557 0.320000 0.823124
v -0.070711 0.320000 0.810688
v -0.070711 0.180000 0.810688
v -0.083147 0.320000 0.795534
v -0.083147 0.180000 0.795534
v -0.092388 0.320000 0.778245
v -0.098079 0.320000 0.759486
v -0.098079 0.180000 0.759486
v -0.100000 0.320000 0.739977
v -0.100000 0.180000 0.739977
v -0.098079 0.320000 0.720468
v -0.098079 0.180000 0.720468
v -0.092388 0.320000 0.701709
v -0.092388 0.180000 0.701709
v -0.083147 0.320000 0.684420
v -0.070711 0.320000 0.669266
v -0.070711 0.180000 0.669266
v -0.055557 0.320000 0.656830
v -0.055557 0.180000 0.656830
v -0.038268 0.320000 0.647589
v 0.000000 0.180000 0.639977
v -0.019509 0.180000 0.641898
v -0.019509 0.320000 0.641898
v -0.092388 0.180000 0.778245
v 0.070711 0.180000 0.669266
v 0.055557 0.180000 0.823124
v -0.055557 0.180000 0.823124
v -0.083147 0.180000 0.684420
v -0.038268 0.180000 0.647589
vn 0.098000 0.000000 -0.995200
vn 0.290300 0.000000 -0.956900
vn 0.471400 0.000000 -0.881900
vn 0.634400 0.000000 -0.773000
vn 0.773000 0.000000 -0.634400
vn 0.881900 0.000000 -0.471400
vn 0.956900 0.000000 -0.290300
vn 0.995200 0.000000 -0.098000
vn 0.995200 0.000000 0.098000
vn 0.956900 0.000000 0.290300
vn 0.881900 0.000000 0.471400
vn 0.773000 0.000000 0.634400
vn 0.634400 0.000000 0.773000
vn 0.471400 0.000000 0.881900
vn 0.290300 0.000000 0.956900
vn 0.098000 0.000000 0.995200
vn -0.098000 0.000000 0.995200
vn -0.290300 0.000000 0.956900
vn -0.471400 0.000000 0.881900
vn -0.634400 0.000000 0.773000
vn -0.773000 0.000000 0.634400
vn -0.881900 0.000000 0.471400
vn -0.956900 0.000000 0.290300
vn -0.995200 0.000000 0.098000
vn -0.995200 0.000000 -0.098000
vn -0.956900 0.000000 -0.290300
vn -0.881900 0.000000 -0.471400
vn -0.773000 0.000000 -0.634400
vn -0.634400 0.000000 -0.773000
vn -0.471400 0.000000 -0.881900
vn -0.098000 0.000000 -0.995200
vn -0.290300 0.000000 -0.956900
vn 0.000000 -1.000000 0.000000
vn 0.000000 1.000000 0.000000
usemtl None
s off
f 81//90 82//90 83//90
f 82//91 84//91 85//91
f 84//92 86//92 87//92
f 87//93 86//93 88//93
f 88//94 89//94 90//94
f 89//95 91//95 92//95
f 91//96 93//96 94//96
f 93//97 95//97 96//97
f 95//98 97//98 98//98
f 97//99 99//99 100//99
f 99//100 101//100 102//100
f 101//101 103//101 104//101
f 104//102 103//102 105//102
f 105//103 106//103 107//103
f 106//104 108//104 109//104
f 108//105 110//105 111//105
f 110//106 112//106 113//106
f 112//107 114//107 115//107
f 115//108 114//108 116//108
f 116//109 117//109 118//109
f 117//110 119//110 120//110
f 120//111 119//111 121//111
f 121//112 122//112 123//112
f 122//113 124//113 125//113
f 124//114 126//114 127//114
f 126//115 128//115 129//115
f 129//116 128//116 130//116
f 130//117 131//117 132//117
f 131//118 133//118 134//118
f 134//119 133//119 135//119
f 136//120 137//120 138//120
f 135//121 138//121 137//121
f 139//122 115//122 120//122
f 114//123 121//123 116//123
f 136//90 81//90 83//90
f 83//91 82//91 85//91
f 85//92 84//92 87//92
f 140//93 87//93 88//93
f 140//94 88//94 90//94
f 90//95 89//95 92//95
f 92//96 91//96 94//96
f 94//97 93//97 96//97
f 96//98 95//98 98//98
f 98//99 97//99 100//99
f 100//100 99//100 102//100
f 102//101 101//101 104//101
f 141//102 104//102 105//102
f 141//103 105//103 107//103
f 107//104 106//104 109//104
f 109//105 108//105 111//105
f 111//106 110//106 113//106
f 113//107 112//107 115//107
f 142//108 115//108 116//108
f 142//109 116//109 118//109
f 118//110 117//110 120//110
f 139//111 120//111 121//111
f 139//112 121//112 123//112
f 123//113 122//113 125//113
f 125//114 124//114 127//114
f 127//115 126//115 129//115
f 143//116 129//116 130//116
f 143//117 130//117 132//117
f 132//118 131//118 134//118
f 144//119 134//119 135//119
f 81//120 136//120 138//120
f 144//121 135//121 137//121
f 129//122 143//122 144//122
f 96//122 98//122 100//122
f 109//122 111//122 107//122
f 102//122 104//122 141//122
f 85//122 87//122 90//122
f 125//122 127//122 129//122
f 94//122 96//122 92//122
f 87//122 140//122 90//122
f 129//122 85//122 92//122
f 111//122 113//122 115//122
f 137//122 136//122 144//122
f 143//122 132//122 134//122
f 115//122 142//122 120//122
f 92//122 85//122 90//122
f 123//122 125//122 139//122
f 142//122 118//122 120//122
f 115//122 100//122 107//122
f 133//123 131//123 130//123
f 85//122 129//122 144//122
f 128//123 126//123 124//123
f 100//122 102//122 107//122
f 141//122 107//122 102//122
f 139//122 129//122 100//122
f 134//122 144//122 143//122
f 107//122 111//122 115//122
f 92//122 96//122 100//122
f 144//122 136//122 85//122
f 139//122 125//122 129//122
f 100//122 115//122 139//122
f 92//122 100//122 129//122
f 136//122 83//122 85//122
f 110//123 106//123 114//123
f 124//123 122//123 121//123
f 82//123 81//123 84//123
f 89//123 88//123 86//123
f 91//123 128//123 106//123
f 110//123 108//123 106//123
f 97//123 95//123 99//123
f 105//123 103//123 101//123
f 121//123 119//123 116//123
f 91//123 89//123 86//123
f 112//123 110//123 114//123
f 119//123 117//123 116//123
f 95//123 93//123 91//123
f 99//123 91//123 106//123
f 81//123 138//123 135//123
f 99//123 106//123 101//123
f 135//123 91//123 84//123
f 106//123 105//123 101//123
f 124//123 121//123 128//123
f 135//123 133//123 130//123
f 128//123 91//123 135//123
f 84//123 81//123 135//123
f 99//123 95//123 91//123
f 106//123 121//123 114//123
f 128//123 135//123 130//123
f 84//123 91//123 86//123
f 128//123 121//123 106//123
o Heck_Cone.001
v -0.057402 0.029946 -0.555803
v 0.000000 -0.187939 -1.126693
v -0.029263 0.020214 -0.529066
v 0.000000 0.016928 -0.520038
v 0.029264 0.020214 -0.529066
v -0.083335 0.045749 -0.599221
v -0.106066 0.067016 -0.657653
v -0.124720 0.092930 -0.728852
v -0.138582 0.122496 -0.810082
v -0.147118 0.154576 -0.898222
v -0.150000 0.187938 -0.989884
v -0.147118 0.221301 -1.081547
v -0.138582 0.253381 -1.169687
v -0.124721 0.282947 -1.250917
v -0.106066 0.308861 -1.322116
v -0.083336 0.330128 -1.380547
v -0.057403 0.345931 -1.423966
v -0.029264 0.355663 -1.450703
v 0.000000 0.358949 -1.459731
v 0.029264 0.355663 -1.450703
v 0.057402 0.345931 -1.423966
v 0.083336 0.330128 -1.380548
v 0.106066 0.308861 -1.322116
v 0.124720 0.282947 -1.250917
v 0.138582 0.253381 -1.169687
v 0.147118 0.221301 -1.081547
v 0.150000 0.187939 -0.989885
v 0.147118 0.154576 -0.898222
v 0.138582 0.122496 -0.810082
v 0.124720 0.092930 -0.728852
v 0.106066 0.067016 -0.657653
v 0.083336 0.045749 -0.599222
v 0.057403 0.029946 -0.555803
vn -0.524800 -0.811500 0.257000
vn 0.200900 -0.928100 0.313400
vn -0.717600 -0.671600 0.184200
vn -0.822100 -0.557200 0.117000
vn -0.879200 -0.472900 0.058200
vn -0.911100 -0.412200 0.005400
vn -0.928300 -0.369100 -0.044400
vn -0.936000 -0.339300 -0.094100
vn -0.936000 -0.320400 -0.146000
vn -0.928300 -0.311300 -0.203200
vn -0.911100 -0.312300 -0.269100
vn -0.879200 -0.324800 -0.348600
vn -0.822100 -0.351700 -0.447800
vn -0.717600 -0.396100 -0.572800
vn -0.524800 -0.456500 -0.718500
vn -0.200900 -0.509500 -0.836700
vn 0.200900 -0.509500 -0.836700
vn 0.524800 -0.456500 -0.718500
vn 0.717600 -0.396100 -0.572800
vn 0.822100 -0.351700 -0.447800
vn 0.879200 -0.324800 -0.348600
vn 0.911100 -0.312300 -0.269100
vn 0.928300 -0.311300 -0.203200
vn 0.936000 -0.320400 -0.146000
vn 0.936000 -0.339300 -0.094100
vn 0.928300 -0.369100 -0.044400
vn 0.911100 -0.412200 0.005400
vn 0.879200 -0.472900 0.058200
vn 0.822100 -0.557200 0.117000
vn 0.717600 -0.671600 0.184200
vn -0.200900 -0.928100 0.313400
vn 0.524800 -0.811500 0.256900
vn 0.000000 0.939700 0.342000
usemtl None
s off
f 145//124 146//124 147//124
f 148//125 146//125 149//125
f 146//126 145//126 150//126
f 151//127 146//127 150//127
f 152//128 146//128 151//128
f 153//129 146//129 152//129
f 154//130 146//130 153//130
f 155//131 146//131 154//131
f 156//132 146//132 155//132
f 157//133 146//133 156//133
f 158//134 146//134 157//134
f 159//135 146//135 158//135
f 160//136 146//136 159//136
f 161//137 146//137 160//137
f 162//138 146//138 161//138
f 163//139 146//139 162//139
f 164//140 146//140 163//140
f 165//141 146//141 164//141
f 166//142 146//142 165//142
f 167//143 146//143 166//143
f 168//144 146//144 167//144
f 169//145 146//145 168//145
f 170//146 146//146 169//146
f 171//147 146//147 170//147
f 172//148 146//148 171//148
f 173//149 146//149 172//149
f 174//150 146//150 173//150
f 175//151 146//151 174//151
f 176//152 146//152 175//152
f 177//153 146//153 176//153
f 147//154 146//154 148//154
f 149//155 146//155 177//155
f 170//156 156//156 171//156
f 157//156 156//156 169//156
f 174//156 152//156 175//156
f 165//156 164//156 162//156
f 147//156 148//156 149//156
f 177//156 145//156 147//156
f 176//156 175//156 150//156
f 152//156 173//156 153//156
f 154//156 172//156 155//156
f 167//156 160//156 159//156
f 158//156 168//156 159//156
f 176//156 145//156 177//156
f 164//156 163//156 162//156
f 175//156 151//156 150//156
f 166//156 160//156 167//156
f 168//156 157//156 169//156
f 168//156 167//156 159//156
f 161//156 165//156 162//156
f 147//156 149//156 177//156
f 168//156 158//156 157//156
f 152//156 174//156 173//156
f 161//156 160//156 165//156
f 150//156 145//156 176//156
f 172//156 154//156 153//156
f 152//156 151//156 175//156
f 171//156 156//156 155//156
f 160//156 166//156 165//156
f 173//156 172//156 153//156
f 156//156 170//156 169//156
f 172//156 171//156 155//156
o Plane.000_Plane.003
v 0.160505 0.234923 0.799977
v 0.160505 0.234923 -1.200023
v -0.010505 -0.234923 -1.200023
v -0.010505 -0.234923 0.799977
vn -0.939700 0.342000 0.000000
usemtl None
s off
f 178//157 179//157 180//157
f 181//157 178//157 180//157
o Bug_Cone
v -0.057402 0.239500 1.182728
v 0.000000 -0.199239 0.757408
v -0.029263 0.241979 1.211073
v 0.000000 0.242817 1.220643
v 0.029264 0.241979 1.211072
v -0.083335 0.235473 1.136699
v -0.106066 0.230053 1.074754
v -0.124720 0.223450 0.999274
v -0.138582 0.215916 0.913160
v -0.147118 0.207741 0.819720
v -0.150000 0.199239 0.722546
v -0.147118 0.190737 0.625372
v -0.138582 0.182562 0.531933
v -0.124721 0.175028 0.445818
v -0.106066 0.168425 0.370338
v -0.083336 0.163005 0.308393
v -0.057403 0.158978 0.262364
v -0.029264 0.156498 0.234019
v 0.000000 0.155661 0.224448
v 0.029264 0.156498 0.234019
v 0.057402 0.158978 0.262364
v 0.083336 0.163005 0.308393
v 0.106066 0.168425 0.370338
v 0.124720 0.175028 0.445818
v 0.138582 0.182562 0.531932
v 0.147118 0.190737 0.625372
v 0.150000 0.199239 0.722546
v 0.147118 0.207741 0.819720
v 0.138582 0.215915 0.913159
v 0.124720 0.223449 0.999274
v 0.106066 0.230053 1.074754
v 0.083336 0.235473 1.136699
v 0.057403 0.239500 1.182728
vn -0.524800 -0.626900 0.575800
vn 0.200900 -0.708700 0.676300
vn -0.717600 -0.530900 0.450800
vn -0.822100 -0.455600 0.341500
vn -0.879200 -0.404000 0.252600
vn -0.911100 -0.371300 0.179100
vn -0.928300 -0.353300 0.115700
vn -0.936000 -0.347200 0.058100
vn -0.936000 -0.352100 0.003000
vn -0.928300 -0.368000 -0.052600
vn -0.911100 -0.396800 -0.111900
vn -0.879200 -0.441700 -0.178700
vn -0.822100 -0.507900 -0.257200
vn -0.717600 -0.601100 -0.351700
vn -0.524800 -0.717400 -0.458200
vn -0.200900 -0.815400 -0.543000
vn 0.200900 -0.815400 -0.543000
vn 0.524800 -0.717400 -0.458200
vn 0.717600 -0.601100 -0.351700
vn 0.822100 -0.507900 -0.257200
vn 0.879200 -0.441700 -0.178600
vn 0.911100 -0.396800 -0.111900
vn 0.928300 -0.368000 -0.052600
vn 0.936000 -0.352100 0.003000
vn 0.936000 -0.347200 0.058100
vn 0.928300 -0.353300 0.115700
vn 0.911100 -0.371300 0.179100
vn 0.879200 -0.404000 0.252600
vn 0.822100 -0.455600 0.341500
vn 0.717600 -0.530900 0.450800
vn -0.200900 -0.708700 0.676300
vn 0.524800 -0.626900 0.575800
vn 0.000000 0.996200 -0.087100
vn 0.000000 0.996200 -0.087200
usemtl None
s off
f 182//158 183//158 184//158
f 185//159 183//159 186//159
f 183//160 182//160 187//160
f 188//161 183//161 187//161
f 189//162 183//162 188//162
f 190//163 183//163 189//163
f 191//164 183//164 190//164
f 192//165 183//165 191//165
f 193//166 183//166 192//166
f 194//167 183//167 193//167
f 195//168 183//168 194//168
f 196//169 183//169 195//169
f 197//170 183//170 196//170
f 198//171 183//171 197//171
f 199//172 183//172 198//172
f 200//173 183//173 199//173
f 201//174 183//174 200//174
f 202//175 183//175 201//175
f 203//176 183//176 202//176
f 204//177 183//177 203//177
f 205//178 183//178 204//178
f 206//179 183//179 205//179
f 207//180 183//180 206//180
f 208//181 183//181 207//181
f 209//182 183//182 208//182
f 210//183 183//183 209//183
f 211//184 183//184 210//184
f 212//185 183//185 211//185
f 213//186 183//186 212//186
f 214//187 183//187 213//187
f 184//188 183//188 185//188
f 186//189 183//189 214//189
f 182//190 186//190 214//190
f 187//191 212//191 188//191
f 189//191 211//191 190//191
f 193//191 207//191 194//191
f 212//191 211//191 188//191
f 203//191 202//191 197//191
f 201//190 200//190 199//190
f 201//191 199//191 202//191
f 203//191 196//191 204//191
f 195//191 194//191 205//191
f 207//191 192//191 208//191
f 209//190 191//190 210//190
f 194//191 206//191 205//191
f 213//191 187//191 214//191
f 184//191 185//191 186//191
f 186//190 182//190 184//190
f 203//191 197//191 196//191
f 207//191 206//191 194//191
f 187//191 213//191 212//191
f 196//190 195//190 205//190
f 211//190 189//190 188//190
f 207//191 193//191 192//191
f 192//191 191//191 208//191
f 202//191 199//191 198//191
f 187//191 182//191 214//191
f 190//191 211//191 210//191
f 191//191 209//191 208//191
f 204//190 196//190 205//190
f 202//191 198//191 197//191
f 191//191 190//191 210//191
